<svg width="128" height="128" version="1.1" viewBox="0 0 128 128" xml:space="preserve" xmlns="http://www.w3.org/2000/svg" xmlns:xlink="http://www.w3.org/1999/xlink"><defs><linearGradient id="7" x1="-8.923" x2="15.298" y1="-74.992" y2="33.906" gradientTransform="matrix(1.1179 0 0 1.1179 -2.5699 -2.7831)" gradientUnits="userSpaceOnUse"><stop id="F" stop-color="#eeeeec" offset="0"/><stop id="G" stop-color="#eeeeec" stop-opacity="0" offset="1"/></linearGradient></defs>
<g transform="matrix(2.4904 0 0 2.4904 3.6709 4.0296)"><rect x="1.4378" y="1.2938" width="45.574" height="45.574" rx="5.6858" fill="#222" stroke-width="1.0851"/><path id="A" d="m7.4912 1.7933c-3.0621 0-5.4847 2.4226-5.4847 5.4847v33.537c0 3.0621 2.4226 5.4847 5.4847 5.4847h33.537c3.0621 0 5.4847-2.4226 5.4847-5.4847v-33.537c0-3.0621-2.4226-5.4847-5.4847-5.4847z" fill="#555753" stroke-width="1.1179"/><path id="C" d="m7.4912 1.7933c-3.0621 0-5.4847 2.4226-5.4847 5.4847v19.179c13.51-5.7383 28.709-10.698 44.506-14.009v-5.1703c0-3.0621-2.4226-5.4847-5.4847-5.4847z" fill="url(#7)" opacity=".6" stroke-width="1.1179"/></g>



































<g transform="translate(0,-10)" fill="none" stroke="#9affa8" stroke-width=".80143"><rect x="50.605" y="91.459" width="27.433" height="19.145"/><rect x="85.041" y="65.374" width="27.433" height="19.145"/><rect x="85.041" y="39.226" width="27.433" height="19.145"/><rect x="16.169" y="65.148" width="27.433" height="19.145"/><rect x="50.605" y="39.161" width="27.433" height="19.145"/><rect x="16.169" y="91.297" width="27.433" height="19.145"/><rect x="16.169" y="38.999" width="27.433" height="19.145"/><rect x="50.605" y="65.31" width="27.433" height="19.145"/><rect x="85.041" y="91.523" width="27.433" height="19.145"/></g></svg>
